<?xml version="1.0" encoding="UTF-8" standalone="no"?>
<!DOCTYPE svg PUBLIC "-//W3C//DTD SVG 1.1//EN"
 "http://www.w3.org/Graphics/SVG/1.1/DTD/svg11.dtd">
<!-- Generated by graphviz version 2.28.0 (20110509.1545)
 -->
<!-- Title: G Pages: 1 -->
<svg width="136pt" height="146pt"
 viewBox="0.00 0.00 136.00 146.00" xmlns="http://www.w3.org/2000/svg" xmlns:xlink="http://www.w3.org/1999/xlink">
<g id="graph1" class="graph" transform="scale(1 1) rotate(0) translate(4 142)">
<title>G</title>
<!-- Node1 -->
<g id="node1" class="node"><title>Node1</title>
<polygon fill="#bfbfbf" stroke="black" points="2.36719,-59 2.36719,-79 125.633,-79 125.633,-59 2.36719,-59"/>
<text text-anchor="middle" x="64" y="-65" font-family="Helvetica,sans-Serif" font-size="10.00">IonDbXml::DbXmlPlugin</text>
</g>
<!-- Node3 -->
<g id="node5" class="node"><title>Node3</title>
<polygon fill="none" stroke="#bfbfbf" points="-0.970215,-1 -0.970215,-21 128.97,-21 128.97,-1 -0.970215,-1"/>
<text text-anchor="middle" x="64" y="-7" font-family="Helvetica,sans-Serif" font-size="10.00">IonDbXml::Private::Plugin</text>
</g>
<!-- Node1&#45;&gt;Node3 -->
<g id="edge4" class="edge"><title>Node1&#45;&gt;Node3</title>
<path fill="none" stroke="midnightblue" d="M64,-48.7065C64,-39.3384 64,-28.5262 64,-21.0752"/>
<polygon fill="midnightblue" stroke="midnightblue" points="60.5001,-48.7527 64,-58.7527 67.5001,-48.7528 60.5001,-48.7527"/>
</g>
<!-- Node2 -->
<g id="node2" class="node"><title>Node2</title>
<a xlink:href="class_ion_core_1_1_basic_plugin.html" target="_top" xlink:title="Defines an interface for every loadable plugin.">
<polygon fill="none" stroke="black" points="9.30811,-117 9.30811,-137 118.692,-137 118.692,-117 9.30811,-117"/>
<text text-anchor="middle" x="64" y="-123" font-family="Helvetica,sans-Serif" font-size="10.00">IonCore::BasicPlugin</text>
</a>
</g>
<!-- Node2&#45;&gt;Node1 -->
<g id="edge2" class="edge"><title>Node2&#45;&gt;Node1</title>
<path fill="none" stroke="midnightblue" d="M64,-106.707C64,-97.3384 64,-86.5262 64,-79.0752"/>
<polygon fill="midnightblue" stroke="midnightblue" points="60.5001,-106.753 64,-116.753 67.5001,-106.753 60.5001,-106.753"/>
</g>
</g>
</svg>
