<?xml version="1.0" encoding="UTF-8" standalone="no"?>
<!DOCTYPE svg PUBLIC "-//W3C//DTD SVG 1.1//EN"
 "http://www.w3.org/Graphics/SVG/1.1/DTD/svg11.dtd">
<!-- Generated by graphviz version 2.28.0 (20110509.1545)
 -->
<!-- Title: G Pages: 1 -->
<svg width="383pt" height="88pt"
 viewBox="0.00 0.00 383.00 88.00" xmlns="http://www.w3.org/2000/svg" xmlns:xlink="http://www.w3.org/1999/xlink">
<g id="graph1" class="graph" transform="scale(1 1) rotate(0) translate(4 84)">
<title>G</title>
<!-- Node1 -->
<g id="node1" class="node"><title>Node1</title>
<polygon fill="#bfbfbf" stroke="black" points="114.298,-59 114.298,-79 253.702,-79 253.702,-59 114.298,-59"/>
<text text-anchor="middle" x="184" y="-65" font-family="Helvetica,sans-Serif" font-size="10.00">IonEditor::EditorComponent</text>
</g>
<!-- Node2 -->
<g id="node3" class="node"><title>Node2</title>
<polygon fill="none" stroke="#bfbfbf" points="-0.928223,-1 -0.928223,-21 172.928,-21 172.928,-1 -0.928223,-1"/>
<text text-anchor="middle" x="86" y="-7" font-family="Helvetica,sans-Serif" font-size="10.00">IonEditor::Private::LineNumberArea</text>
</g>
<!-- Node1&#45;&gt;Node2 -->
<g id="edge2" class="edge"><title>Node1&#45;&gt;Node2</title>
<path fill="none" stroke="midnightblue" d="M159.013,-53.7215C141.036,-43.4489 117.33,-29.9031 101.882,-21.0752"/>
<polygon fill="midnightblue" stroke="midnightblue" points="157.398,-56.8302 167.817,-58.7527 160.871,-50.7524 157.398,-56.8302"/>
</g>
<!-- Node3 -->
<g id="node5" class="node"><title>Node3</title>
<polygon fill="none" stroke="#bfbfbf" points="190.793,-1 190.793,-21 375.207,-21 375.207,-1 190.793,-1"/>
<text text-anchor="middle" x="283" y="-7" font-family="Helvetica,sans-Serif" font-size="10.00">IonPhp::Private::EditorSourceBrowser</text>
</g>
<!-- Node1&#45;&gt;Node3 -->
<g id="edge4" class="edge"><title>Node1&#45;&gt;Node3</title>
<path fill="none" stroke="midnightblue" d="M209.242,-53.7215C227.403,-43.4489 251.35,-29.9031 266.956,-21.0752"/>
<polygon fill="midnightblue" stroke="midnightblue" points="207.329,-50.7828 200.348,-58.7527 210.775,-56.8756 207.329,-50.7828"/>
</g>
</g>
</svg>
