<?xml version="1.0" encoding="UTF-8" standalone="no"?>
<!DOCTYPE svg PUBLIC "-//W3C//DTD SVG 1.1//EN"
 "http://www.w3.org/Graphics/SVG/1.1/DTD/svg11.dtd">
<!-- Generated by graphviz version 2.28.0 (20110509.1545)
 -->
<!-- Title: G Pages: 1 -->
<svg width="530pt" height="106pt"
 viewBox="0.00 0.00 530.00 106.00" xmlns="http://www.w3.org/2000/svg" xmlns:xlink="http://www.w3.org/1999/xlink">
<g id="graph1" class="graph" transform="scale(1 1) rotate(0) translate(4 102)">
<title>G</title>
<!-- Node1 -->
<g id="node1" class="node"><title>Node1</title>
<polygon fill="#bfbfbf" stroke="black" points="-0.0908203,-39 -0.0908203,-59 122.091,-59 122.091,-39 -0.0908203,-39"/>
<text text-anchor="middle" x="61" y="-45" font-family="Helvetica,sans-Serif" font-size="10.00">IonLayout::PanelWidget</text>
</g>
<!-- Node2 -->
<g id="node3" class="node"><title>Node2</title>
<a xlink:href="class_ion_editor_1_1_editor.html" target="_top" xlink:title="Defines an interface to access and manipulate the Editor widget.">
<polygon fill="none" stroke="black" points="200.148,-78 200.148,-98 287.852,-98 287.852,-78 200.148,-78"/>
<text text-anchor="middle" x="244" y="-84" font-family="Helvetica,sans-Serif" font-size="10.00">IonEditor::Editor</text>
</a>
</g>
<!-- Node1&#45;&gt;Node2 -->
<g id="edge2" class="edge"><title>Node1&#45;&gt;Node2</title>
<path fill="none" stroke="midnightblue" d="M118.453,-61.1639C144.764,-66.8331 175.569,-73.4707 199.96,-78.7263"/>
<polygon fill="midnightblue" stroke="midnightblue" points="119.125,-57.7284 108.612,-59.0435 117.65,-64.5714 119.125,-57.7284"/>
</g>
<!-- Node4 -->
<g id="node7" class="node"><title>Node4</title>
<polygon fill="none" stroke="#bfbfbf" points="161.154,-39 161.154,-59 326.846,-59 326.846,-39 161.154,-39"/>
<text text-anchor="middle" x="244" y="-45" font-family="Helvetica,sans-Serif" font-size="10.00">IonEditor::Private::FileTreeWidget</text>
</g>
<!-- Node1&#45;&gt;Node4 -->
<g id="edge6" class="edge"><title>Node1&#45;&gt;Node4</title>
<path fill="none" stroke="midnightblue" d="M132.348,-49C141.765,-49 151.489,-49 161.083,-49"/>
<polygon fill="midnightblue" stroke="midnightblue" points="132.27,-45.5001 122.27,-49 132.27,-52.5001 132.27,-45.5001"/>
</g>
<!-- Node5 -->
<g id="node9" class="node"><title>Node5</title>
<polygon fill="none" stroke="#bfbfbf" points="158.734,-0 158.734,-20 329.266,-20 329.266,-0 158.734,-0"/>
<text text-anchor="middle" x="244" y="-6" font-family="Helvetica,sans-Serif" font-size="10.00">IonProject::Private::TreeViewPanel</text>
</g>
<!-- Node1&#45;&gt;Node5 -->
<g id="edge8" class="edge"><title>Node1&#45;&gt;Node5</title>
<path fill="none" stroke="midnightblue" d="M118.708,-36.7812C143.748,-31.3858 172.818,-25.1221 196.546,-20.0094"/>
<polygon fill="midnightblue" stroke="midnightblue" points="117.65,-33.4286 108.612,-38.9565 119.125,-40.2716 117.65,-33.4286"/>
</g>
<!-- Node3 -->
<g id="node5" class="node"><title>Node3</title>
<polygon fill="none" stroke="#bfbfbf" points="366.247,-78 366.247,-98 521.753,-98 521.753,-78 366.247,-78"/>
<text text-anchor="middle" x="444" y="-84" font-family="Helvetica,sans-Serif" font-size="10.00">IonEditor::Private::EditorWidget</text>
</g>
<!-- Node2&#45;&gt;Node3 -->
<g id="edge4" class="edge"><title>Node2&#45;&gt;Node3</title>
<path fill="none" stroke="midnightblue" d="M298.223,-88C319.104,-88 343.468,-88 366.189,-88"/>
<polygon fill="midnightblue" stroke="midnightblue" points="297.963,-84.5001 287.963,-88 297.963,-91.5001 297.963,-84.5001"/>
</g>
</g>
</svg>
