<?xml version="1.0" encoding="UTF-8" standalone="no"?>
<!DOCTYPE svg PUBLIC "-//W3C//DTD SVG 1.1//EN"
 "http://www.w3.org/Graphics/SVG/1.1/DTD/svg11.dtd">
<!-- Generated by graphviz version 2.28.0 (20110509.1545)
 -->
<!-- Title: G Pages: 1 -->
<svg width="448pt" height="145pt"
 viewBox="0.00 0.00 448.00 145.00" xmlns="http://www.w3.org/2000/svg" xmlns:xlink="http://www.w3.org/1999/xlink">
<g id="graph1" class="graph" transform="scale(1 1) rotate(0) translate(4 141)">
<title>G</title>
<!-- Node1 -->
<g id="node1" class="node"><title>Node1</title>
<polygon fill="#bfbfbf" stroke="black" points="0.308105,-58 0.308105,-78 109.692,-78 109.692,-58 0.308105,-58"/>
<text text-anchor="middle" x="55" y="-64" font-family="Helvetica,sans-Serif" font-size="10.00">IonCore::BasicPlugin</text>
</g>
<!-- Node2 -->
<g id="node3" class="node"><title>Node2</title>
<a xlink:href="class_ion_editor_1_1_editor_plugin.html" target="_top" xlink:title="The interface of the IonEditor plugin.">
<polygon fill="none" stroke="black" points="151.249,-117 151.249,-137 266.751,-137 266.751,-117 151.249,-117"/>
<text text-anchor="middle" x="209" y="-123" font-family="Helvetica,sans-Serif" font-size="10.00">IonEditor::EditorPlugin</text>
</a>
</g>
<!-- Node1&#45;&gt;Node2 -->
<g id="edge2" class="edge"><title>Node1&#45;&gt;Node2</title>
<path fill="none" stroke="midnightblue" d="M87.119,-82.37C104.314,-90.0852 126.153,-99.5187 146,-107 155.207,-110.471 165.317,-113.892 174.653,-116.897"/>
<polygon fill="midnightblue" stroke="midnightblue" points="88.1355,-78.9884 77.5819,-78.0538 85.2492,-85.3657 88.1355,-78.9884"/>
</g>
<!-- Node4 -->
<g id="node7" class="node"><title>Node4</title>
<a xlink:href="class_ion_layout_1_1_layout_plugin.html" target="_top" xlink:title="The interface of the IonLayout plugin.">
<polygon fill="none" stroke="black" points="147.348,-78 147.348,-98 270.652,-98 270.652,-78 147.348,-78"/>
<text text-anchor="middle" x="209" y="-84" font-family="Helvetica,sans-Serif" font-size="10.00">IonLayout::LayoutPlugin</text>
</a>
</g>
<!-- Node1&#45;&gt;Node4 -->
<g id="edge6" class="edge"><title>Node1&#45;&gt;Node4</title>
<path fill="none" stroke="midnightblue" d="M120.04,-76.4263C129.027,-77.6089 138.244,-78.8216 147.169,-79.996"/>
<polygon fill="midnightblue" stroke="midnightblue" points="120.389,-72.9421 110.017,-75.1076 119.475,-79.8823 120.389,-72.9421"/>
</g>
<!-- Node6 -->
<g id="node11" class="node"><title>Node6</title>
<polygon fill="none" stroke="#bfbfbf" points="150.136,-39 150.136,-59 267.864,-59 267.864,-39 150.136,-39"/>
<text text-anchor="middle" x="209" y="-45" font-family="Helvetica,sans-Serif" font-size="10.00">IonPhp::Private::Plugin</text>
</g>
<!-- Node1&#45;&gt;Node6 -->
<g id="edge10" class="edge"><title>Node1&#45;&gt;Node6</title>
<path fill="none" stroke="midnightblue" d="M120.206,-59.9742C130.107,-58.7367 140.281,-57.4649 150.034,-56.2458"/>
<polygon fill="midnightblue" stroke="midnightblue" points="119.506,-56.5344 110.017,-61.2478 120.374,-63.4804 119.506,-56.5344"/>
</g>
<!-- Node7 -->
<g id="node13" class="node"><title>Node7</title>
<a xlink:href="class_ion_project_1_1_project_plugin.html" target="_top" xlink:title="The interface of the IonProject plugin.">
<polygon fill="none" stroke="black" points="146.249,-0 146.249,-20 271.751,-20 271.751,-0 146.249,-0"/>
<text text-anchor="middle" x="209" y="-6" font-family="Helvetica,sans-Serif" font-size="10.00">IonProject::ProjectPlugin</text>
</a>
</g>
<!-- Node1&#45;&gt;Node7 -->
<g id="edge12" class="edge"><title>Node1&#45;&gt;Node7</title>
<path fill="none" stroke="midnightblue" d="M87.8497,-53.75C104.945,-46.3054 126.463,-37.2596 146,-30 155.33,-26.5332 165.571,-23.0866 174.995,-20.0559"/>
<polygon fill="midnightblue" stroke="midnightblue" points="86.0934,-50.6985 78.3434,-57.9226 88.9069,-57.1082 86.0934,-50.6985"/>
</g>
<!-- Node3 -->
<g id="node5" class="node"><title>Node3</title>
<polygon fill="none" stroke="#bfbfbf" points="310.971,-117 310.971,-137 437.029,-137 437.029,-117 310.971,-117"/>
<text text-anchor="middle" x="374" y="-123" font-family="Helvetica,sans-Serif" font-size="10.00">IonEditor::Private::Plugin</text>
</g>
<!-- Node2&#45;&gt;Node3 -->
<g id="edge4" class="edge"><title>Node2&#45;&gt;Node3</title>
<path fill="none" stroke="midnightblue" d="M277.104,-127C288.236,-127 299.739,-127 310.744,-127"/>
<polygon fill="midnightblue" stroke="midnightblue" points="277.01,-123.5 267.009,-127 277.009,-130.5 277.01,-123.5"/>
</g>
<!-- Node5 -->
<g id="node9" class="node"><title>Node5</title>
<polygon fill="none" stroke="#bfbfbf" points="309.02,-78 309.02,-98 438.98,-98 438.98,-78 309.02,-78"/>
<text text-anchor="middle" x="374" y="-84" font-family="Helvetica,sans-Serif" font-size="10.00">IonLayout::Private::Plugin</text>
</g>
<!-- Node4&#45;&gt;Node5 -->
<g id="edge8" class="edge"><title>Node4&#45;&gt;Node5</title>
<path fill="none" stroke="midnightblue" d="M280.773,-88C290.152,-88 299.724,-88 308.98,-88"/>
<polygon fill="midnightblue" stroke="midnightblue" points="280.695,-84.5001 270.695,-88 280.695,-91.5001 280.695,-84.5001"/>
</g>
<!-- Node8 -->
<g id="node15" class="node"><title>Node8</title>
<polygon fill="none" stroke="#bfbfbf" points="308.471,-0 308.471,-20 439.529,-20 439.529,-0 308.471,-0"/>
<text text-anchor="middle" x="374" y="-6" font-family="Helvetica,sans-Serif" font-size="10.00">IonProject::Private::Plugin</text>
</g>
<!-- Node7&#45;&gt;Node8 -->
<g id="edge14" class="edge"><title>Node7&#45;&gt;Node8</title>
<path fill="none" stroke="midnightblue" d="M282.223,-10C290.933,-10 299.786,-10 308.377,-10"/>
<polygon fill="midnightblue" stroke="midnightblue" points="282.088,-6.5001 272.088,-10 282.088,-13.5001 282.088,-6.5001"/>
</g>
</g>
</svg>
