<?xml version="1.0" encoding="UTF-8" standalone="no"?>
<!DOCTYPE svg PUBLIC "-//W3C//DTD SVG 1.1//EN"
 "http://www.w3.org/Graphics/SVG/1.1/DTD/svg11.dtd">
<!-- Generated by graphviz version 2.28.0 (20110509.1545)
 -->
<!-- Title: G Pages: 1 -->
<svg width="448pt" height="184pt"
 viewBox="0.00 0.00 448.00 184.00" xmlns="http://www.w3.org/2000/svg" xmlns:xlink="http://www.w3.org/1999/xlink">
<g id="graph1" class="graph" transform="scale(1 1) rotate(0) translate(4 180)">
<title>G</title>
<!-- Node1 -->
<g id="node1" class="node"><title>Node1</title>
<polygon fill="#bfbfbf" stroke="black" points="0.308105,-78 0.308105,-98 109.692,-98 109.692,-78 0.308105,-78"/>
<text text-anchor="middle" x="55" y="-84" font-family="Helvetica,sans-Serif" font-size="10.00">IonCore::BasicPlugin</text>
</g>
<!-- Node2 -->
<g id="node3" class="node"><title>Node2</title>
<a xlink:href="class_ion_db_xml_1_1_db_xml_plugin.html" target="_top" xlink:title="The interface of the IonDbXml plugin.">
<polygon fill="none" stroke="black" points="147.367,-156 147.367,-176 270.633,-176 270.633,-156 147.367,-156"/>
<text text-anchor="middle" x="209" y="-162" font-family="Helvetica,sans-Serif" font-size="10.00">IonDbXml::DbXmlPlugin</text>
</a>
</g>
<!-- Node1&#45;&gt;Node2 -->
<g id="edge2" class="edge"><title>Node1&#45;&gt;Node2</title>
<path fill="none" stroke="midnightblue" d="M77.8145,-104.368C95.4821,-117.043 121.393,-134.348 146,-146 153.973,-149.776 162.843,-153.107 171.324,-155.915"/>
<polygon fill="midnightblue" stroke="midnightblue" points="79.5197,-101.28 69.3774,-98.2162 75.3956,-106.936 79.5197,-101.28"/>
</g>
<!-- Node4 -->
<g id="node7" class="node"><title>Node4</title>
<a xlink:href="class_ion_editor_1_1_editor_plugin.html" target="_top" xlink:title="The interface of the IonEditor plugin.">
<polygon fill="none" stroke="black" points="151.249,-117 151.249,-137 266.751,-137 266.751,-117 151.249,-117"/>
<text text-anchor="middle" x="209" y="-123" font-family="Helvetica,sans-Serif" font-size="10.00">IonEditor::EditorPlugin</text>
</a>
</g>
<!-- Node1&#45;&gt;Node4 -->
<g id="edge6" class="edge"><title>Node1&#45;&gt;Node4</title>
<path fill="none" stroke="midnightblue" d="M105.029,-100.58C125.733,-105.892 149.505,-111.992 168.989,-116.991"/>
<polygon fill="midnightblue" stroke="midnightblue" points="105.7,-97.1386 95.1438,-98.0435 103.96,-103.919 105.7,-97.1386"/>
</g>
<!-- Node6 -->
<g id="node11" class="node"><title>Node6</title>
<a xlink:href="class_ion_layout_1_1_layout_plugin.html" target="_top" xlink:title="The interface of the IonLayout plugin.">
<polygon fill="none" stroke="black" points="147.348,-78 147.348,-98 270.652,-98 270.652,-78 147.348,-78"/>
<text text-anchor="middle" x="209" y="-84" font-family="Helvetica,sans-Serif" font-size="10.00">IonLayout::LayoutPlugin</text>
</a>
</g>
<!-- Node1&#45;&gt;Node6 -->
<g id="edge10" class="edge"><title>Node1&#45;&gt;Node6</title>
<path fill="none" stroke="midnightblue" d="M120.04,-88C129.027,-88 138.244,-88 147.169,-88"/>
<polygon fill="midnightblue" stroke="midnightblue" points="120.018,-84.5001 110.017,-88 120.017,-91.5001 120.018,-84.5001"/>
</g>
<!-- Node8 -->
<g id="node15" class="node"><title>Node8</title>
<polygon fill="none" stroke="#bfbfbf" points="150.136,-39 150.136,-59 267.864,-59 267.864,-39 150.136,-39"/>
<text text-anchor="middle" x="209" y="-45" font-family="Helvetica,sans-Serif" font-size="10.00">IonPhp::Private::Plugin</text>
</g>
<!-- Node1&#45;&gt;Node8 -->
<g id="edge14" class="edge"><title>Node1&#45;&gt;Node8</title>
<path fill="none" stroke="midnightblue" d="M105.029,-75.4202C125.733,-70.108 149.505,-64.0085 168.989,-59.0094"/>
<polygon fill="midnightblue" stroke="midnightblue" points="103.96,-72.081 95.1438,-77.9565 105.7,-78.8614 103.96,-72.081"/>
</g>
<!-- Node9 -->
<g id="node17" class="node"><title>Node9</title>
<a xlink:href="class_ion_project_1_1_project_plugin.html" target="_top" xlink:title="The interface of the IonProject plugin.">
<polygon fill="none" stroke="black" points="146.249,-0 146.249,-20 271.751,-20 271.751,-0 146.249,-0"/>
<text text-anchor="middle" x="209" y="-6" font-family="Helvetica,sans-Serif" font-size="10.00">IonProject::ProjectPlugin</text>
</a>
</g>
<!-- Node1&#45;&gt;Node9 -->
<g id="edge16" class="edge"><title>Node1&#45;&gt;Node9</title>
<path fill="none" stroke="midnightblue" d="M77.8145,-71.6321C95.4821,-58.9572 121.393,-41.6522 146,-30 153.973,-26.2245 162.843,-22.893 171.324,-20.0854"/>
<polygon fill="midnightblue" stroke="midnightblue" points="75.3956,-69.0642 69.3774,-77.7838 79.5197,-74.7204 75.3956,-69.0642"/>
</g>
<!-- Node3 -->
<g id="node5" class="node"><title>Node3</title>
<polygon fill="none" stroke="#bfbfbf" points="309.03,-156 309.03,-176 438.97,-176 438.97,-156 309.03,-156"/>
<text text-anchor="middle" x="374" y="-162" font-family="Helvetica,sans-Serif" font-size="10.00">IonDbXml::Private::Plugin</text>
</g>
<!-- Node2&#45;&gt;Node3 -->
<g id="edge4" class="edge"><title>Node2&#45;&gt;Node3</title>
<path fill="none" stroke="midnightblue" d="M280.773,-166C290.152,-166 299.724,-166 308.98,-166"/>
<polygon fill="midnightblue" stroke="midnightblue" points="280.695,-162.5 270.695,-166 280.695,-169.5 280.695,-162.5"/>
</g>
<!-- Node5 -->
<g id="node9" class="node"><title>Node5</title>
<polygon fill="none" stroke="#bfbfbf" points="310.971,-117 310.971,-137 437.029,-137 437.029,-117 310.971,-117"/>
<text text-anchor="middle" x="374" y="-123" font-family="Helvetica,sans-Serif" font-size="10.00">IonEditor::Private::Plugin</text>
</g>
<!-- Node4&#45;&gt;Node5 -->
<g id="edge8" class="edge"><title>Node4&#45;&gt;Node5</title>
<path fill="none" stroke="midnightblue" d="M277.104,-127C288.236,-127 299.739,-127 310.744,-127"/>
<polygon fill="midnightblue" stroke="midnightblue" points="277.01,-123.5 267.009,-127 277.009,-130.5 277.01,-123.5"/>
</g>
<!-- Node7 -->
<g id="node13" class="node"><title>Node7</title>
<polygon fill="none" stroke="#bfbfbf" points="309.02,-78 309.02,-98 438.98,-98 438.98,-78 309.02,-78"/>
<text text-anchor="middle" x="374" y="-84" font-family="Helvetica,sans-Serif" font-size="10.00">IonLayout::Private::Plugin</text>
</g>
<!-- Node6&#45;&gt;Node7 -->
<g id="edge12" class="edge"><title>Node6&#45;&gt;Node7</title>
<path fill="none" stroke="midnightblue" d="M280.773,-88C290.152,-88 299.724,-88 308.98,-88"/>
<polygon fill="midnightblue" stroke="midnightblue" points="280.695,-84.5001 270.695,-88 280.695,-91.5001 280.695,-84.5001"/>
</g>
<!-- Node10 -->
<g id="node19" class="node"><title>Node10</title>
<polygon fill="none" stroke="#bfbfbf" points="308.471,-0 308.471,-20 439.529,-20 439.529,-0 308.471,-0"/>
<text text-anchor="middle" x="374" y="-6" font-family="Helvetica,sans-Serif" font-size="10.00">IonProject::Private::Plugin</text>
</g>
<!-- Node9&#45;&gt;Node10 -->
<g id="edge18" class="edge"><title>Node9&#45;&gt;Node10</title>
<path fill="none" stroke="midnightblue" d="M282.223,-10C290.933,-10 299.786,-10 308.377,-10"/>
<polygon fill="midnightblue" stroke="midnightblue" points="282.088,-6.5001 272.088,-10 282.088,-13.5001 282.088,-6.5001"/>
</g>
</g>
</svg>
