<?xml version="1.0" encoding="UTF-8" standalone="no"?>
<!DOCTYPE svg PUBLIC "-//W3C//DTD SVG 1.1//EN"
 "http://www.w3.org/Graphics/SVG/1.1/DTD/svg11.dtd">
<!-- Generated by graphviz version 2.28.0 (20110509.1545)
 -->
<!-- Title: G Pages: 1 -->
<svg width="134pt" height="146pt"
 viewBox="0.00 0.00 134.00 146.00" xmlns="http://www.w3.org/2000/svg" xmlns:xlink="http://www.w3.org/1999/xlink">
<g id="graph1" class="graph" transform="scale(1 1) rotate(0) translate(4 142)">
<title>G</title>
<!-- Node1 -->
<g id="node1" class="node"><title>Node1</title>
<polygon fill="#bfbfbf" stroke="black" points="5.24902,-59 5.24902,-79 120.751,-79 120.751,-59 5.24902,-59"/>
<text text-anchor="middle" x="63" y="-65" font-family="Helvetica,sans-Serif" font-size="10.00">IonEditor::EditorPlugin</text>
</g>
<!-- Node3 -->
<g id="node5" class="node"><title>Node3</title>
<polygon fill="none" stroke="#bfbfbf" points="-0.0292969,-1 -0.0292969,-21 126.029,-21 126.029,-1 -0.0292969,-1"/>
<text text-anchor="middle" x="63" y="-7" font-family="Helvetica,sans-Serif" font-size="10.00">IonEditor::Private::Plugin</text>
</g>
<!-- Node1&#45;&gt;Node3 -->
<g id="edge4" class="edge"><title>Node1&#45;&gt;Node3</title>
<path fill="none" stroke="midnightblue" d="M63,-48.7065C63,-39.3384 63,-28.5262 63,-21.0752"/>
<polygon fill="midnightblue" stroke="midnightblue" points="59.5001,-48.7527 63,-58.7527 66.5001,-48.7528 59.5001,-48.7527"/>
</g>
<!-- Node2 -->
<g id="node2" class="node"><title>Node2</title>
<a xlink:href="class_ion_core_1_1_basic_plugin.html" target="_top" xlink:title="Defines an interface for every loadable plugin.">
<polygon fill="none" stroke="black" points="8.30811,-117 8.30811,-137 117.692,-137 117.692,-117 8.30811,-117"/>
<text text-anchor="middle" x="63" y="-123" font-family="Helvetica,sans-Serif" font-size="10.00">IonCore::BasicPlugin</text>
</a>
</g>
<!-- Node2&#45;&gt;Node1 -->
<g id="edge2" class="edge"><title>Node2&#45;&gt;Node1</title>
<path fill="none" stroke="midnightblue" d="M63,-106.707C63,-97.3384 63,-86.5262 63,-79.0752"/>
<polygon fill="midnightblue" stroke="midnightblue" points="59.5001,-106.753 63,-116.753 66.5001,-106.753 59.5001,-106.753"/>
</g>
</g>
</svg>
