<?xml version="1.0" encoding="UTF-8" standalone="no"?>
<!DOCTYPE svg PUBLIC "-//W3C//DTD SVG 1.1//EN"
 "http://www.w3.org/Graphics/SVG/1.1/DTD/svg11.dtd">
<!-- Generated by graphviz version 2.28.0 (20110509.1545)
 -->
<!-- Title: G Pages: 1 -->
<svg width="530pt" height="145pt"
 viewBox="0.00 0.00 530.00 145.00" xmlns="http://www.w3.org/2000/svg" xmlns:xlink="http://www.w3.org/1999/xlink">
<g id="graph1" class="graph" transform="scale(1 1) rotate(0) translate(4 141)">
<title>G</title>
<!-- Node1 -->
<g id="node1" class="node"><title>Node1</title>
<polygon fill="#bfbfbf" stroke="black" points="-0.0908203,-58 -0.0908203,-78 122.091,-78 122.091,-58 -0.0908203,-58"/>
<text text-anchor="middle" x="61" y="-64" font-family="Helvetica,sans-Serif" font-size="10.00">IonLayout::PanelWidget</text>
</g>
<!-- Node2 -->
<g id="node3" class="node"><title>Node2</title>
<a xlink:href="class_ion_editor_1_1_editor.html" target="_top" xlink:title="Defines an interface to access and manipulate the Editor widget.">
<polygon fill="none" stroke="black" points="200.148,-117 200.148,-137 287.852,-137 287.852,-117 200.148,-117"/>
<text text-anchor="middle" x="244" y="-123" font-family="Helvetica,sans-Serif" font-size="10.00">IonEditor::Editor</text>
</a>
</g>
<!-- Node1&#45;&gt;Node2 -->
<g id="edge2" class="edge"><title>Node1&#45;&gt;Node2</title>
<path fill="none" stroke="midnightblue" d="M93.547,-82.2573C112.062,-90.2593 136.061,-100.009 158,-107 171.433,-111.281 186.324,-115.091 199.841,-118.207"/>
<polygon fill="midnightblue" stroke="midnightblue" points="94.7038,-78.943 84.1396,-78.1383 91.8962,-85.3553 94.7038,-78.943"/>
</g>
<!-- Node4 -->
<g id="node7" class="node"><title>Node4</title>
<polygon fill="none" stroke="#bfbfbf" points="161.154,-78 161.154,-98 326.846,-98 326.846,-78 161.154,-78"/>
<text text-anchor="middle" x="244" y="-84" font-family="Helvetica,sans-Serif" font-size="10.00">IonEditor::Private::FileTreeWidget</text>
</g>
<!-- Node1&#45;&gt;Node4 -->
<g id="edge6" class="edge"><title>Node1&#45;&gt;Node4</title>
<path fill="none" stroke="midnightblue" d="M132.348,-75.7732C141.765,-76.8138 151.489,-77.8883 161.083,-78.9484"/>
<polygon fill="midnightblue" stroke="midnightblue" points="132.594,-72.2793 122.27,-74.6597 131.825,-79.2369 132.594,-72.2793"/>
</g>
<!-- Node5 -->
<g id="node9" class="node"><title>Node5</title>
<polygon fill="none" stroke="#bfbfbf" points="166.239,-39 166.239,-59 321.761,-59 321.761,-39 166.239,-39"/>
<text text-anchor="middle" x="244" y="-45" font-family="Helvetica,sans-Serif" font-size="10.00">IonEditor::Private::SearchPanel</text>
</g>
<!-- Node1&#45;&gt;Node5 -->
<g id="edge8" class="edge"><title>Node1&#45;&gt;Node5</title>
<path fill="none" stroke="midnightblue" d="M132.263,-60.6243C143.296,-59.4661 154.752,-58.2636 165.928,-57.0904"/>
<polygon fill="midnightblue" stroke="midnightblue" points="131.85,-57.1483 122.27,-61.6733 132.581,-64.1101 131.85,-57.1483"/>
</g>
<!-- Node6 -->
<g id="node11" class="node"><title>Node6</title>
<polygon fill="none" stroke="#bfbfbf" points="158.734,-0 158.734,-20 329.266,-20 329.266,-0 158.734,-0"/>
<text text-anchor="middle" x="244" y="-6" font-family="Helvetica,sans-Serif" font-size="10.00">IonProject::Private::TreeViewPanel</text>
</g>
<!-- Node1&#45;&gt;Node6 -->
<g id="edge10" class="edge"><title>Node1&#45;&gt;Node6</title>
<path fill="none" stroke="midnightblue" d="M93.9517,-53.9954C112.427,-46.2417 136.254,-36.8223 158,-30 169.861,-26.2789 182.845,-22.8896 195.015,-20.0014"/>
<polygon fill="midnightblue" stroke="midnightblue" points="92.3863,-50.8576 84.5517,-57.9899 95.124,-57.3001 92.3863,-50.8576"/>
</g>
<!-- Node3 -->
<g id="node5" class="node"><title>Node3</title>
<polygon fill="none" stroke="#bfbfbf" points="366.247,-117 366.247,-137 521.753,-137 521.753,-117 366.247,-117"/>
<text text-anchor="middle" x="444" y="-123" font-family="Helvetica,sans-Serif" font-size="10.00">IonEditor::Private::EditorWidget</text>
</g>
<!-- Node2&#45;&gt;Node3 -->
<g id="edge4" class="edge"><title>Node2&#45;&gt;Node3</title>
<path fill="none" stroke="midnightblue" d="M298.223,-127C319.104,-127 343.468,-127 366.189,-127"/>
<polygon fill="midnightblue" stroke="midnightblue" points="297.963,-123.5 287.963,-127 297.963,-130.5 297.963,-123.5"/>
</g>
</g>
</svg>
