<?xml version="1.0" encoding="UTF-8" standalone="no"?>
<!DOCTYPE svg PUBLIC "-//W3C//DTD SVG 1.1//EN"
 "http://www.w3.org/Graphics/SVG/1.1/DTD/svg11.dtd">
<!-- Generated by graphviz version 2.28.0 (20110509.1545)
 -->
<!-- Title: G Pages: 1 -->
<svg width="475pt" height="146pt"
 viewBox="0.00 0.00 475.00 146.00" xmlns="http://www.w3.org/2000/svg" xmlns:xlink="http://www.w3.org/1999/xlink">
<g id="graph1" class="graph" transform="scale(1 1) rotate(0) translate(4 142)">
<title>G</title>
<!-- Node1 -->
<g id="node1" class="node"><title>Node1</title>
<polygon fill="#bfbfbf" stroke="black" points="160.909,-117 160.909,-137 283.091,-137 283.091,-117 160.909,-117"/>
<text text-anchor="middle" x="222" y="-123" font-family="Helvetica,sans-Serif" font-size="10.00">IonLayout::PanelWidget</text>
</g>
<!-- Node2 -->
<g id="node3" class="node"><title>Node2</title>
<a xlink:href="class_ion_editor_1_1_editor.html" target="_top" xlink:title="Defines an interface to access and manipulate the Editor widget.">
<polygon fill="none" stroke="black" points="33.1479,-59 33.1479,-79 120.852,-79 120.852,-59 33.1479,-59"/>
<text text-anchor="middle" x="77" y="-65" font-family="Helvetica,sans-Serif" font-size="10.00">IonEditor::Editor</text>
</a>
</g>
<!-- Node1&#45;&gt;Node2 -->
<g id="edge2" class="edge"><title>Node1&#45;&gt;Node2</title>
<path fill="none" stroke="midnightblue" d="M188.971,-113.244C162.027,-102.838 124.62,-88.3912 100.609,-79.1181"/>
<polygon fill="midnightblue" stroke="midnightblue" points="187.791,-116.54 198.381,-116.878 190.313,-110.01 187.791,-116.54"/>
</g>
<!-- Node4 -->
<g id="node7" class="node"><title>Node4</title>
<polygon fill="none" stroke="#bfbfbf" points="139.154,-59 139.154,-79 304.846,-79 304.846,-59 139.154,-59"/>
<text text-anchor="middle" x="222" y="-65" font-family="Helvetica,sans-Serif" font-size="10.00">IonEditor::Private::FileTreeWidget</text>
</g>
<!-- Node1&#45;&gt;Node4 -->
<g id="edge6" class="edge"><title>Node1&#45;&gt;Node4</title>
<path fill="none" stroke="midnightblue" d="M222,-106.707C222,-97.3384 222,-86.5262 222,-79.0752"/>
<polygon fill="midnightblue" stroke="midnightblue" points="218.5,-106.753 222,-116.753 225.5,-106.753 218.5,-106.753"/>
</g>
<!-- Node5 -->
<g id="node9" class="node"><title>Node5</title>
<polygon fill="none" stroke="#bfbfbf" points="322.522,-59 322.522,-79 467.478,-79 467.478,-59 322.522,-59"/>
<text text-anchor="middle" x="395" y="-65" font-family="Helvetica,sans-Serif" font-size="10.00">IonProject::Private::TreeView</text>
</g>
<!-- Node1&#45;&gt;Node5 -->
<g id="edge8" class="edge"><title>Node1&#45;&gt;Node5</title>
<path fill="none" stroke="midnightblue" d="M259.756,-113.778C292.117,-103.303 337.991,-88.4538 367.118,-79.0253"/>
<polygon fill="midnightblue" stroke="midnightblue" points="258.617,-110.468 250.18,-116.878 260.772,-117.128 258.617,-110.468"/>
</g>
<!-- Node3 -->
<g id="node5" class="node"><title>Node3</title>
<polygon fill="none" stroke="#bfbfbf" points="-0.753418,-1 -0.753418,-21 154.753,-21 154.753,-1 -0.753418,-1"/>
<text text-anchor="middle" x="77" y="-7" font-family="Helvetica,sans-Serif" font-size="10.00">IonEditor::Private::EditorWidget</text>
</g>
<!-- Node2&#45;&gt;Node3 -->
<g id="edge4" class="edge"><title>Node2&#45;&gt;Node3</title>
<path fill="none" stroke="midnightblue" d="M77,-48.7065C77,-39.3384 77,-28.5262 77,-21.0752"/>
<polygon fill="midnightblue" stroke="midnightblue" points="73.5001,-48.7527 77,-58.7527 80.5001,-48.7528 73.5001,-48.7527"/>
</g>
</g>
</svg>
