<?xml version="1.0" encoding="UTF-8" standalone="no"?>
<!DOCTYPE svg PUBLIC "-//W3C//DTD SVG 1.1//EN"
 "http://www.w3.org/Graphics/SVG/1.1/DTD/svg11.dtd">
<!-- Generated by graphviz version 2.28.0 (20110509.1545)
 -->
<!-- Title: G Pages: 1 -->
<svg width="162pt" height="146pt"
 viewBox="0.00 0.00 162.00 146.00" xmlns="http://www.w3.org/2000/svg" xmlns:xlink="http://www.w3.org/1999/xlink">
<g id="graph1" class="graph" transform="scale(1 1) rotate(0) translate(4 142)">
<title>G</title>
<!-- Node1 -->
<g id="node1" class="node"><title>Node1</title>
<polygon fill="#bfbfbf" stroke="black" points="33.1479,-59 33.1479,-79 120.852,-79 120.852,-59 33.1479,-59"/>
<text text-anchor="middle" x="77" y="-65" font-family="Helvetica,sans-Serif" font-size="10.00">IonEditor::Editor</text>
</g>
<!-- Node3 -->
<g id="node5" class="node"><title>Node3</title>
<polygon fill="none" stroke="#bfbfbf" points="-0.753418,-1 -0.753418,-21 154.753,-21 154.753,-1 -0.753418,-1"/>
<text text-anchor="middle" x="77" y="-7" font-family="Helvetica,sans-Serif" font-size="10.00">IonEditor::Private::EditorWidget</text>
</g>
<!-- Node1&#45;&gt;Node3 -->
<g id="edge4" class="edge"><title>Node1&#45;&gt;Node3</title>
<path fill="none" stroke="midnightblue" d="M77,-48.7065C77,-39.3384 77,-28.5262 77,-21.0752"/>
<polygon fill="midnightblue" stroke="midnightblue" points="73.5001,-48.7527 77,-58.7527 80.5001,-48.7528 73.5001,-48.7527"/>
</g>
<!-- Node2 -->
<g id="node2" class="node"><title>Node2</title>
<a xlink:href="class_ion_layout_1_1_panel_widget.html" target="_top" xlink:title="Interface of the zone client panel.">
<polygon fill="none" stroke="black" points="15.9092,-117 15.9092,-137 138.091,-137 138.091,-117 15.9092,-117"/>
<text text-anchor="middle" x="77" y="-123" font-family="Helvetica,sans-Serif" font-size="10.00">IonLayout::PanelWidget</text>
</a>
</g>
<!-- Node2&#45;&gt;Node1 -->
<g id="edge2" class="edge"><title>Node2&#45;&gt;Node1</title>
<path fill="none" stroke="midnightblue" d="M77,-106.707C77,-97.3384 77,-86.5262 77,-79.0752"/>
<polygon fill="midnightblue" stroke="midnightblue" points="73.5001,-106.753 77,-116.753 80.5001,-106.753 73.5001,-106.753"/>
</g>
</g>
</svg>
