<?xml version="1.0" encoding="UTF-8" standalone="no"?>
<!DOCTYPE svg PUBLIC "-//W3C//DTD SVG 1.1//EN"
 "http://www.w3.org/Graphics/SVG/1.1/DTD/svg11.dtd">
<!-- Generated by graphviz version 2.28.0 (20110509.1545)
 -->
<!-- Title: G Pages: 1 -->
<svg width="280pt" height="145pt"
 viewBox="0.00 0.00 280.00 145.00" xmlns="http://www.w3.org/2000/svg" xmlns:xlink="http://www.w3.org/1999/xlink">
<g id="graph1" class="graph" transform="scale(1 1) rotate(0) translate(4 141)">
<title>G</title>
<!-- Node1 -->
<g id="node1" class="node"><title>Node1</title>
<a xlink:href="class_ion_core_1_1_basic_plugin.html" target="_top" xlink:title="Defines an interface for every loadable plugin.">
<polygon fill="none" stroke="black" points="0.308105,-58 0.308105,-78 109.692,-78 109.692,-58 0.308105,-58"/>
<text text-anchor="middle" x="55" y="-64" font-family="Helvetica,sans-Serif" font-size="10.00">IonCore::BasicPlugin</text>
</a>
</g>
<!-- Node2 -->
<g id="node3" class="node"><title>Node2</title>
<a xlink:href="class_ion_db_xml_1_1_db_xml_plugin.html" target="_top" xlink:title="The interface of the IonDbXml plugin.">
<polygon fill="none" stroke="black" points="147.367,-117 147.367,-137 270.633,-137 270.633,-117 147.367,-117"/>
<text text-anchor="middle" x="209" y="-123" font-family="Helvetica,sans-Serif" font-size="10.00">IonDbXml::DbXmlPlugin</text>
</a>
</g>
<!-- Node1&#45;&gt;Node2 -->
<g id="edge2" class="edge"><title>Node1&#45;&gt;Node2</title>
<path fill="none" stroke="midnightblue" d="M87.119,-82.37C104.314,-90.0852 126.153,-99.5187 146,-107 155.207,-110.471 165.317,-113.892 174.653,-116.897"/>
<polygon fill="midnightblue" stroke="midnightblue" points="88.1355,-78.9884 77.5819,-78.0538 85.2492,-85.3657 88.1355,-78.9884"/>
</g>
<!-- Node3 -->
<g id="node5" class="node"><title>Node3</title>
<a xlink:href="class_ion_editor_1_1_editor_plugin.html" target="_top" xlink:title="The interface of the IonEditor plugin.">
<polygon fill="none" stroke="black" points="151.249,-78 151.249,-98 266.751,-98 266.751,-78 151.249,-78"/>
<text text-anchor="middle" x="209" y="-84" font-family="Helvetica,sans-Serif" font-size="10.00">IonEditor::EditorPlugin</text>
</a>
</g>
<!-- Node1&#45;&gt;Node3 -->
<g id="edge4" class="edge"><title>Node1&#45;&gt;Node3</title>
<path fill="none" stroke="midnightblue" d="M120.157,-76.4417C130.424,-77.7926 140.986,-79.1824 151.07,-80.5092"/>
<polygon fill="midnightblue" stroke="midnightblue" points="120.389,-72.9421 110.017,-75.1076 119.475,-79.8823 120.389,-72.9421"/>
</g>
<!-- Node4 -->
<g id="node7" class="node"><title>Node4</title>
<a xlink:href="class_ion_layout_1_1_layout_plugin.html" target="_top" xlink:title="The interface of the IonLayout plugin.">
<polygon fill="none" stroke="black" points="147.348,-39 147.348,-59 270.652,-59 270.652,-39 147.348,-39"/>
<text text-anchor="middle" x="209" y="-45" font-family="Helvetica,sans-Serif" font-size="10.00">IonLayout::LayoutPlugin</text>
</a>
</g>
<!-- Node1&#45;&gt;Node4 -->
<g id="edge6" class="edge"><title>Node1&#45;&gt;Node4</title>
<path fill="none" stroke="midnightblue" d="M120.04,-59.995C129.027,-58.8716 138.244,-57.7195 147.169,-56.6038"/>
<polygon fill="midnightblue" stroke="midnightblue" points="119.506,-56.5344 110.017,-61.2478 120.374,-63.4804 119.506,-56.5344"/>
</g>
<!-- Node5 -->
<g id="node9" class="node"><title>Node5</title>
<a xlink:href="class_ion_project_1_1_project_plugin.html" target="_top" xlink:title="The interface of the IonProject plugin.">
<polygon fill="none" stroke="black" points="146.249,-0 146.249,-20 271.751,-20 271.751,-0 146.249,-0"/>
<text text-anchor="middle" x="209" y="-6" font-family="Helvetica,sans-Serif" font-size="10.00">IonProject::ProjectPlugin</text>
</a>
</g>
<!-- Node1&#45;&gt;Node5 -->
<g id="edge8" class="edge"><title>Node1&#45;&gt;Node5</title>
<path fill="none" stroke="midnightblue" d="M87.8497,-53.75C104.945,-46.3054 126.463,-37.2596 146,-30 155.33,-26.5332 165.571,-23.0866 174.995,-20.0559"/>
<polygon fill="midnightblue" stroke="midnightblue" points="86.0934,-50.6985 78.3434,-57.9226 88.9069,-57.1082 86.0934,-50.6985"/>
</g>
</g>
</svg>
