<?xml version="1.0" encoding="UTF-8" standalone="no"?>
<!DOCTYPE svg PUBLIC "-//W3C//DTD SVG 1.1//EN"
 "http://www.w3.org/Graphics/SVG/1.1/DTD/svg11.dtd">
<!-- Generated by graphviz version 2.28.0 (20110509.1545)
 -->
<!-- Title: G Pages: 1 -->
<svg width="280pt" height="106pt"
 viewBox="0.00 0.00 280.00 106.00" xmlns="http://www.w3.org/2000/svg" xmlns:xlink="http://www.w3.org/1999/xlink">
<g id="graph1" class="graph" transform="scale(1 1) rotate(0) translate(4 102)">
<title>G</title>
<!-- Node1 -->
<g id="node1" class="node"><title>Node1</title>
<a xlink:href="class_ion_core_1_1_basic_plugin.html" target="_top" xlink:title="Defines an interface for every loadable plugin.">
<polygon fill="none" stroke="black" points="0.308105,-39 0.308105,-59 109.692,-59 109.692,-39 0.308105,-39"/>
<text text-anchor="middle" x="55" y="-45" font-family="Helvetica,sans-Serif" font-size="10.00">IonCore::BasicPlugin</text>
</a>
</g>
<!-- Node2 -->
<g id="node3" class="node"><title>Node2</title>
<a xlink:href="class_ion_editor_1_1_editor_plugin.html" target="_top" xlink:title="The interface of the IonEditor plugin.">
<polygon fill="none" stroke="black" points="151.249,-78 151.249,-98 266.751,-98 266.751,-78 151.249,-78"/>
<text text-anchor="middle" x="209" y="-84" font-family="Helvetica,sans-Serif" font-size="10.00">IonEditor::EditorPlugin</text>
</a>
</g>
<!-- Node1&#45;&gt;Node2 -->
<g id="edge2" class="edge"><title>Node1&#45;&gt;Node2</title>
<path fill="none" stroke="midnightblue" d="M105.029,-61.5798C125.733,-66.892 149.505,-72.9915 168.989,-77.9906"/>
<polygon fill="midnightblue" stroke="midnightblue" points="105.7,-58.1386 95.1438,-59.0435 103.96,-64.919 105.7,-58.1386"/>
</g>
<!-- Node3 -->
<g id="node5" class="node"><title>Node3</title>
<a xlink:href="class_ion_layout_1_1_layout_plugin.html" target="_top" xlink:title="The interface of the IonLayout plugin.">
<polygon fill="none" stroke="black" points="147.348,-39 147.348,-59 270.652,-59 270.652,-39 147.348,-39"/>
<text text-anchor="middle" x="209" y="-45" font-family="Helvetica,sans-Serif" font-size="10.00">IonLayout::LayoutPlugin</text>
</a>
</g>
<!-- Node1&#45;&gt;Node3 -->
<g id="edge4" class="edge"><title>Node1&#45;&gt;Node3</title>
<path fill="none" stroke="midnightblue" d="M120.04,-49C129.027,-49 138.244,-49 147.169,-49"/>
<polygon fill="midnightblue" stroke="midnightblue" points="120.018,-45.5001 110.017,-49 120.017,-52.5001 120.018,-45.5001"/>
</g>
<!-- Node4 -->
<g id="node7" class="node"><title>Node4</title>
<a xlink:href="class_ion_project_1_1_project_plugin.html" target="_top" xlink:title="The interface of the IonProject plugin.">
<polygon fill="none" stroke="black" points="146.249,-0 146.249,-20 271.751,-20 271.751,-0 146.249,-0"/>
<text text-anchor="middle" x="209" y="-6" font-family="Helvetica,sans-Serif" font-size="10.00">IonProject::ProjectPlugin</text>
</a>
</g>
<!-- Node1&#45;&gt;Node4 -->
<g id="edge6" class="edge"><title>Node1&#45;&gt;Node4</title>
<path fill="none" stroke="midnightblue" d="M105.029,-36.4202C125.733,-31.108 149.505,-25.0085 168.989,-20.0094"/>
<polygon fill="midnightblue" stroke="midnightblue" points="103.96,-33.081 95.1438,-38.9565 105.7,-39.8614 103.96,-33.081"/>
</g>
</g>
</svg>
