<?xml version="1.0" encoding="UTF-8" standalone="no"?>
<!DOCTYPE svg PUBLIC "-//W3C//DTD SVG 1.1//EN"
 "http://www.w3.org/Graphics/SVG/1.1/DTD/svg11.dtd">
<!-- Generated by graphviz version 2.28.0 (20110509.1545)
 -->
<!-- Title: G Pages: 1 -->
<svg width="514pt" height="67pt"
 viewBox="0.00 0.00 514.00 67.00" xmlns="http://www.w3.org/2000/svg" xmlns:xlink="http://www.w3.org/1999/xlink">
<g id="graph1" class="graph" transform="scale(1 1) rotate(0) translate(4 63)">
<title>G</title>
<!-- Node1 -->
<g id="node1" class="node"><title>Node1</title>
<polygon fill="#bfbfbf" stroke="black" points="0.231934,-19 0.231934,-39 195.768,-39 195.768,-19 0.231934,-19"/>
<text text-anchor="middle" x="98" y="-25" font-family="Helvetica,sans-Serif" font-size="10.00">IonEditor::EditorComponentFactoryBase</text>
</g>
<!-- Node2 -->
<g id="node3" class="node"><title>Node2</title>
<a xlink:href="struct_ion_editor_1_1_editor_component_factory.html" target="_top" xlink:title="Convenience templace to create EditorComponent factories.">
<polygon fill="none" stroke="black" points="249.271,-39 249.271,-59 488.729,-59 488.729,-39 249.271,-39"/>
<text text-anchor="middle" x="369" y="-45" font-family="Helvetica,sans-Serif" font-size="10.00">IonEditor::EditorComponentFactory&lt; component &gt;</text>
</a>
</g>
<!-- Node1&#45;&gt;Node2 -->
<g id="edge2" class="edge"><title>Node1&#45;&gt;Node2</title>
<path fill="none" stroke="midnightblue" d="M206.259,-36.9747C220.303,-38.0188 234.761,-39.0938 248.985,-40.1513"/>
<polygon fill="midnightblue" stroke="midnightblue" points="206.347,-33.4716 196.115,-36.2205 205.828,-40.4524 206.347,-33.4716"/>
</g>
<!-- Node3 -->
<g id="node5" class="node"><title>Node3</title>
<a xlink:href="struct_ion_editor_1_1_editor_component_factory1.html" target="_top" xlink:title="Convenience templace to create EditorComponent factories.">
<polygon fill="none" stroke="black" points="232.316,-0 232.316,-20 505.684,-20 505.684,-0 232.316,-0"/>
<text text-anchor="middle" x="369" y="-6" font-family="Helvetica,sans-Serif" font-size="10.00">IonEditor::EditorComponentFactory1&lt; component, targ1 &gt;</text>
</a>
</g>
<!-- Node1&#45;&gt;Node3 -->
<g id="edge4" class="edge"><title>Node1&#45;&gt;Node3</title>
<path fill="none" stroke="midnightblue" d="M206.108,-21.4347C214.69,-20.8286 223.426,-20.2115 232.17,-19.5939"/>
<polygon fill="midnightblue" stroke="midnightblue" points="205.844,-17.9446 196.115,-22.1406 206.337,-24.9272 205.844,-17.9446"/>
</g>
</g>
</svg>
