<?xml version="1.0" encoding="UTF-8" standalone="no"?>
<!DOCTYPE svg PUBLIC "-//W3C//DTD SVG 1.1//EN"
 "http://www.w3.org/Graphics/SVG/1.1/DTD/svg11.dtd">
<!-- Generated by graphviz version 2.28.0 (20110509.1545)
 -->
<!-- Title: G Pages: 1 -->
<svg width="407pt" height="88pt"
 viewBox="0.00 0.00 407.00 88.00" xmlns="http://www.w3.org/2000/svg" xmlns:xlink="http://www.w3.org/1999/xlink">
<g id="graph1" class="graph" transform="scale(1 1) rotate(0) translate(4 84)">
<title>G</title>
<!-- Node1 -->
<g id="node1" class="node"><title>Node1</title>
<polygon fill="#bfbfbf" stroke="black" points="137.638,-59 137.638,-79 280.362,-79 280.362,-59 137.638,-59"/>
<text text-anchor="middle" x="209" y="-65" font-family="Helvetica,sans-Serif" font-size="10.00">IonEditor::HighlighterFactory</text>
</g>
<!-- Node2 -->
<g id="node3" class="node"><title>Node2</title>
<polygon fill="none" stroke="#bfbfbf" points="-0.543945,-1 -0.543945,-21 210.544,-21 210.544,-1 -0.543945,-1"/>
<text text-anchor="middle" x="105" y="-7" font-family="Helvetica,sans-Serif" font-size="10.00">IonEditor::Private::DefaultHighlighterFactory</text>
</g>
<!-- Node1&#45;&gt;Node2 -->
<g id="edge2" class="edge"><title>Node1&#45;&gt;Node2</title>
<path fill="none" stroke="midnightblue" d="M183.006,-54.0034C163.867,-43.6979 138.399,-29.9841 121.854,-21.0752"/>
<polygon fill="midnightblue" stroke="midnightblue" points="181.362,-57.0933 191.827,-58.7527 184.681,-50.93 181.362,-57.0933"/>
</g>
<!-- Node3 -->
<g id="node5" class="node"><title>Node3</title>
<polygon fill="none" stroke="#bfbfbf" points="228.463,-1 228.463,-21 399.537,-21 399.537,-1 228.463,-1"/>
<text text-anchor="middle" x="314" y="-7" font-family="Helvetica,sans-Serif" font-size="10.00">IonPhp::Private::HighlighterFactory</text>
</g>
<!-- Node1&#45;&gt;Node3 -->
<g id="edge4" class="edge"><title>Node1&#45;&gt;Node3</title>
<path fill="none" stroke="midnightblue" d="M235.244,-54.0034C254.566,-43.6979 280.28,-29.9841 296.984,-21.0752"/>
<polygon fill="midnightblue" stroke="midnightblue" points="233.515,-50.9586 226.339,-58.7527 236.809,-57.135 233.515,-50.9586"/>
</g>
</g>
</svg>
