<?xml version="1.0" encoding="UTF-8" standalone="no"?>
<!DOCTYPE svg PUBLIC "-//W3C//DTD SVG 1.1//EN"
 "http://www.w3.org/Graphics/SVG/1.1/DTD/svg11.dtd">
<!-- Generated by graphviz version 2.28.0 (20110509.1545)
 -->
<!-- Title: G Pages: 1 -->
<svg width="400pt" height="67pt"
 viewBox="0.00 0.00 400.00 67.00" xmlns="http://www.w3.org/2000/svg" xmlns:xlink="http://www.w3.org/1999/xlink">
<g id="graph1" class="graph" transform="scale(1 1) rotate(0) translate(4 63)">
<title>G</title>
<!-- Node1 -->
<g id="node1" class="node"><title>Node1</title>
<polygon fill="#bfbfbf" stroke="black" points="0.638184,-19 0.638184,-39 143.362,-39 143.362,-19 0.638184,-19"/>
<text text-anchor="middle" x="72" y="-25" font-family="Helvetica,sans-Serif" font-size="10.00">IonEditor::HighlighterFactory</text>
</g>
<!-- Node2 -->
<g id="node3" class="node"><title>Node2</title>
<polygon fill="none" stroke="#bfbfbf" points="180.456,-39 180.456,-59 391.544,-59 391.544,-39 180.456,-39"/>
<text text-anchor="middle" x="286" y="-45" font-family="Helvetica,sans-Serif" font-size="10.00">IonEditor::Private::DefaultHighlighterFactory</text>
</g>
<!-- Node1&#45;&gt;Node2 -->
<g id="edge2" class="edge"><title>Node1&#45;&gt;Node2</title>
<path fill="none" stroke="midnightblue" d="M153.695,-36.6127C162.407,-37.4347 171.363,-38.2795 180.305,-39.1231"/>
<polygon fill="midnightblue" stroke="midnightblue" points="153.877,-33.1145 143.593,-35.6597 153.22,-40.0836 153.877,-33.1145"/>
</g>
<!-- Node3 -->
<g id="node5" class="node"><title>Node3</title>
<polygon fill="none" stroke="#bfbfbf" points="191.298,-0 191.298,-20 380.702,-20 380.702,-0 191.298,-0"/>
<text text-anchor="middle" x="286" y="-6" font-family="Helvetica,sans-Serif" font-size="10.00">IonEditor::Private::JsHighlighterFactory</text>
</g>
<!-- Node1&#45;&gt;Node3 -->
<g id="edge4" class="edge"><title>Node1&#45;&gt;Node3</title>
<path fill="none" stroke="midnightblue" d="M153.695,-21.7679C165.871,-20.6767 178.52,-19.543 190.948,-18.4292"/>
<polygon fill="midnightblue" stroke="midnightblue" points="153.241,-18.2945 143.593,-22.6733 153.865,-25.2666 153.241,-18.2945"/>
</g>
</g>
</svg>
